<svg xmlns="http://www.w3.org/2000/svg" viewBox="0 0 240 48" role="img" aria-labelledby="title">
  <title id="title">efficient-kan</title>
  <rect width="48" height="48" rx="10" fill="#0f766e"/>
  <path d="M12 31 20 17l8 14 8-14" fill="none" stroke="#fff" stroke-width="5" stroke-linecap="round" stroke-linejoin="round"/>
  <path d="M67 15h29v6H75v7h19v6H75v8h22v6H67V15Zm37 0h9l14 20V15h8v33h-8l-15-21v21h-8V15Zm42 0h8v33h-8V15Zm20 0h9l12 15 12-15h9l-14 16 15 17h-10l-12-15-12 15h-9l15-17-15-16Z" fill="#111827"/>
</svg>
